<?xml version="1.0" standalone="no"?>
<!DOCTYPE svg PUBLIC "-//W3C//DTD SVG 20010904//EN"
 "http://www.w3.org/TR/2001/REC-SVG-20010904/DTD/svg10.dtd">
<svg version="1.0" xmlns="http://www.w3.org/2000/svg"
 width="16.000000pt" height="16.000000pt" viewBox="0 0 16.000000 16.000000"
 preserveAspectRatio="xMidYMid meet">
<metadata>
Created by potrace 1.11, written by Peter Selinger 2001-2013
</metadata>
<g transform="translate(0.000000,16.000000) scale(0.003125,-0.003125)"
fill="#000000" stroke="none">
<path d="M5 3178 c1 -667 3 -1216 4 -1219 0 -4 105 -6 232 -5 127 0 235 -2
240 -5 5 -3 -56 -134 -136 -292 l-145 -287 82 53 c46 30 245 161 443 292 l360
238 280 1 c154 1 287 -2 295 -5 13 -6 15 -70 15 -488 l-1 -481 136 0 c74 -1
605 -1 1180 -1 l1044 -1 305 -201 c168 -111 364 -241 436 -288 71 -48 131 -85
133 -84 2 2 -60 129 -137 284 -78 154 -141 283 -141 286 0 3 105 5 234 4 129
-1 238 1 243 4 4 3 8 551 8 1219 l0 1213 -832 0 c-458 0 -834 2 -834 5 -1 3
-2 221 -3 485 l-1 480 -1721 3 -1720 2 1 -1212z m2945 712 c4 -106 1 -460 -3
-467 -3 -4 -287 -8 -632 -8 -410 0 -629 -3 -634 -10 -4 -5 -7 -225 -7 -488 l1
-477 -590 0 -590 0 0 725 c0 537 3 728 12 733 6 4 558 7 1227 7 1074 0 1216
-2 1216 -15z m1 -1050 c0 -49 1 -106 1 -125 0 -19 -1 -89 -1 -155 l-1 -120
-389 0 c-362 0 -389 1 -393 18 -3 14 -2 419 1 459 1 10 92 12 391 13 l390 0 1
-90z m1673 -633 c-1 -397 -2 -726 -3 -732 -1 -7 -413 -10 -1218 -9 -670 1
-1222 2 -1228 3 -6 1 -10 89 -10 243 l0 243 640 0 640 0 1 475 c1 261 2 481 3
487 1 10 130 13 589 12 l587 0 -1 -722z"/>
</g>
</svg>
